# Blender v2.83.0 OBJ File: 'Restaurant_Large.blend'
# www.blender.org
mtllib walls.mtl
o floor_walls_Large
v 3.800000 6.300001 0.000000
v -5.000000 6.300000 0.790000
v -5.500001 6.300000 0.000000
v -5.000000 6.300000 2.010000
v -5.500001 6.300000 2.400000
v 3.300000 6.300001 0.790000
v 3.800000 6.300001 2.400000
v 3.300000 6.300001 2.010000
v -5.650001 6.450000 2.400000
v -5.000000 6.450000 2.010000
v -5.650001 6.450000 0.000000
v -5.000000 6.450000 0.790000
v 3.950000 6.450001 0.000000
v 3.300000 6.450001 0.790000
v 3.950000 6.450001 2.400000
v 3.300000 6.450001 2.010000
v -1.530000 -3.150000 2.100000
v -1.530000 -3.150000 0.000000
v -0.800000 -3.150000 0.790000
v -0.800000 -3.150000 2.010000
v 3.300000 -3.150000 2.010000
v 3.950001 -3.150000 2.400000
v -5.650000 -3.150001 2.400000
v -2.730000 -3.150000 2.100000
v 3.950001 -3.150000 0.000000
v 3.300000 -3.150000 0.790000
v -5.650000 -3.150001 0.000000
v -2.730000 -3.150000 0.000000
v -1.530000 -3.000000 0.000000
v 3.300000 -3.000000 0.790000
v 3.800000 -3.000000 0.000000
v 3.300000 -3.000000 2.010000
v 3.800000 -3.000000 2.400000
v -0.800000 -3.000000 0.790000
v -1.530000 -3.000000 2.100000
v -0.800000 -3.000000 2.010000
v -2.730000 -3.000000 2.100000
v -5.500000 -3.000001 2.400000
v -2.730000 -3.000000 0.000000
v -5.500000 -3.000001 0.000000
vn 0.0000 -1.0000 -0.0000
vn 0.0000 1.0000 0.0000
vn -1.0000 0.0000 0.0000
vn 0.0000 0.0000 1.0000
vn 1.0000 0.0000 0.0000
vn 0.0000 0.0000 -1.0000
usemtl None
s off
f 1//1 2//1 3//1
f 3//1 2//1 4//1
f 3//1 4//1 5//1
f 2//1 1//1 6//1
f 6//1 1//1 7//1
f 6//1 7//1 8//1
f 8//1 7//1 5//1
f 8//1 5//1 4//1
f 9//2 10//2 11//2
f 11//2 10//2 12//2
f 11//2 12//2 13//2
f 13//2 12//2 14//2
f 13//2 14//2 15//2
f 15//2 14//2 16//2
f 15//2 16//2 9//2
f 9//2 16//2 10//2
f 16//3 14//3 8//3
f 8//3 14//3 6//3
f 12//4 2//4 14//4
f 14//4 2//4 6//4
f 2//5 12//5 4//5
f 4//5 12//5 10//5
f 16//6 8//6 10//6
f 10//6 8//6 4//6
f 17//1 18//1 19//1
f 17//1 19//1 20//1
f 17//1 20//1 21//1
f 17//1 21//1 22//1
f 17//1 22//1 23//1
f 17//1 23//1 24//1
f 22//1 21//1 25//1
f 25//1 21//1 26//1
f 25//1 26//1 18//1
f 18//1 26//1 19//1
f 27//1 28//1 23//1
f 23//1 28//1 24//1
f 29//2 30//2 31//2
f 31//2 30//2 32//2
f 31//2 32//2 33//2
f 30//2 29//2 34//2
f 34//2 29//2 35//2
f 34//2 35//2 36//2
f 36//2 35//2 33//2
f 36//2 33//2 32//2
f 35//2 37//2 33//2
f 33//2 37//2 38//2
f 37//2 39//2 38//2
f 38//2 39//2 40//2
f 1//6 25//6 31//6
f 31//6 25//6 18//6
f 31//6 18//6 29//6
f 25//6 1//6 13//6
f 13//6 1//6 3//6
f 13//6 3//6 11//6
f 11//6 3//6 40//6
f 11//6 40//6 27//6
f 27//6 40//6 39//6
f 27//6 39//6 28//6
f 35//3 29//3 17//3
f 17//3 29//3 18//3
f 39//5 37//5 28//5
f 28//5 37//5 24//5
f 35//6 17//6 37//6
f 37//6 17//6 24//6
f 32//3 30//3 21//3
f 21//3 30//3 26//3
f 34//4 19//4 30//4
f 30//4 19//4 26//4
f 34//5 36//5 19//5
f 19//5 36//5 20//5
f 32//6 21//6 36//6
f 36//6 21//6 20//6
f 15//4 7//4 22//4
f 22//4 7//4 33//4
f 22//4 33//4 23//4
f 23//4 33//4 38//4
f 23//4 38//4 9//4
f 9//4 38//4 5//4
f 9//4 5//4 15//4
f 15//4 5//4 7//4
f 7//3 1//3 33//3
f 33//3 1//3 31//3
f 38//5 40//5 5//5
f 5//5 40//5 3//5
f 23//3 9//3 27//3
f 27//3 9//3 11//3
f 15//5 22//5 13//5
f 13//5 22//5 25//5
